<svg xmlns="http://www.w3.org/2000/svg" width="71.578" height="71.588" viewBox="0 0 71.578 71.588"><g transform="translate(-4472.256 -1552.293)"><path d="M4523.874,1594.8a3.019,3.019,0,0,0-2.2.868l-4.425,4.428a1.14,1.14,0,0,1-.661.128c-2.438,0-7.614-2.712-12.793-7.894-6.962-6.959-8.5-12.723-7.766-13.455l4.427-4.424c2.919-2.919-2.245-8.955-5.584-12.293-1.514-1.515-6.714-6.452-10.087-6.452a3.019,3.019,0,0,0-2.2.868l-8.855,8.855c-2.657,2.657-1.71,7.816,2.819,15.331,3.909,6.49,10.091,14.093,17.408,21.41,10.8,10.8,25.121,21.707,32.75,21.707h0a5.405,5.405,0,0,0,3.987-1.48l8.856-8.855c2.918-2.916-2.246-8.951-5.584-12.29C4532.45,1599.742,4527.25,1594.8,4523.874,1594.8Zm3.656,24.434a1.356,1.356,0,0,1-.827.169c-4.454,0-16.339-7.149-29.587-20.4-7.067-7.067-13.012-14.367-16.74-20.554-4.166-6.918-3.81-9.537-3.487-9.86l8.281-8.282a31.429,31.429,0,0,1,11.547,11.547l-3.854,3.854c-4.127,4.133,1.133,13.152,7.766,19.782,5.675,5.677,11.789,9.2,15.957,9.2a5.206,5.206,0,0,0,3.825-1.439l3.854-3.853a31.431,31.431,0,0,1,11.546,11.546Z" fill="#fff"/><path d="M4536.277,1559.849a25.635,25.635,0,0,0-18.255-7.556h-.006a2.237,2.237,0,1,0,0,4.474h.006a21.324,21.324,0,0,1,21.337,21.343,2.238,2.238,0,0,0,4.475,0A25.642,25.642,0,0,0,4536.277,1559.849Z" fill="#fff"/><path d="M4515.066,1565.614h0a15.425,15.425,0,0,1,15.442,15.447,2.237,2.237,0,1,0,4.474,0,19.9,19.9,0,0,0-19.916-19.921h0a2.237,2.237,0,0,0,0,4.474Z" fill="#fff"/><path d="M4512.115,1574.46h.006a9.538,9.538,0,0,1,9.545,9.552,2.238,2.238,0,0,0,4.475,0,14.015,14.015,0,0,0-14.02-14.026h-.006a2.237,2.237,0,1,0,0,4.474Z" fill="#fff"/></g></svg>