<svg xmlns="http://www.w3.org/2000/svg" width="78.247" height="80.921" viewBox="0 0 78.247 80.921"><g transform="translate(-5488.139 -1540.645)"><path d="M5541.721,1609.659h21.263v-44.61a4.726,4.726,0,0,0-4.721-4.72h-25.9v-6.8h5.954a.851.851,0,0,0,0-1.7h-6.8a.851.851,0,0,0-.851.851v7.654h-3.4v-17.01h11.057a.85.85,0,0,0,0-1.7h-11.907a.851.851,0,0,0-.851.851v17.86h-3.4v-11.056a.85.85,0,0,0-.85-.851H5507.7a.851.851,0,1,0,0,1.7h12.757v10.206h-24.2a4.726,4.726,0,0,0-4.72,4.72v44.61h50.18Zm-14.459-44.227h3.4v1.7h-3.4Zm-5.1,0h3.4v1.7h-3.4Zm-25.515,38.273v-37.422a.851.851,0,0,1,.851-.851h22.963v1.7h-22.113v35.722h57.834v-35.722h-23.814v-1.7h24.665a.851.851,0,0,1,.851.851V1603.7a.85.85,0,0,1-.851.85H5497.5A.849.849,0,0,1,5496.644,1603.7Zm11.057-26.366a.851.851,0,1,1,0-1.7h6.8a.851.851,0,0,1,.85.851V1590.1a.851.851,0,0,1-1.7,0v-12.758Zm35.721-5.1h-5.954V1590.1a.85.85,0,0,1-1.7,0v-18.711a.851.851,0,0,1,.851-.851h6.8a.85.85,0,0,1,0,1.7Zm3.4,22.964v3.4h-3.4v-3.4Zm-5.1,0v3.4h-3.4v-3.4Zm6.8,3.4v-3.4h3.4v3.4Z" fill="none" stroke="#fff" stroke-miterlimit="10" stroke-width="1.947"/><path d="M5563.834,1611.36h-21.263v4.252a.85.85,0,0,1-.85.851H5512.8a.851.851,0,0,1-.851-.851v-4.252h-23.814v2.34l18.064,7.866h41.812l18.371-7.7v-2.508Z" fill="#fff"/><rect width="27.216" height="3.402" transform="translate(5513.654 1611.36)" fill="#fff"/><rect width="3.402" height="3.402" transform="translate(5541.721 1550.974)" fill="#fff"/><rect width="3.402" height="3.402" transform="translate(5546.824 1550.974)" fill="#fff"/><path d="M5545.123,1540.768h-3.4v3.4h3.4Z" fill="#fff"/><rect width="3.402" height="3.402" transform="translate(5500.896 1547.571)" fill="#fff"/><rect width="3.402" height="3.402" transform="translate(5495.793 1547.571)" fill="#fff"/></g></svg>