<svg xmlns="http://www.w3.org/2000/svg" xmlns:xlink="http://www.w3.org/1999/xlink" width="217.696" height="71.683" viewBox="0 0 217.696 71.683"><defs><linearGradient id="a" x1="0.5" y1="3.05" x2="0.5" y2="0.278" gradientUnits="objectBoundingBox"><stop offset="0.004" stop-color="#20385d"/><stop offset="1" stop-color="#a3b6e8"/></linearGradient><linearGradient id="b" x1="0.5" y1="3.121" x2="0.5" y2="0.272" xlink:href="#a"/><linearGradient id="c" x1="0.5" y1="3.05" x2="0.5" y2="0.278" xlink:href="#a"/><linearGradient id="d" x1="0.5" y1="3.121" x2="0.5" y2="0.272" xlink:href="#a"/><linearGradient id="m" x1="0.5" y1="2.642" x2="0.5" y2="0.436" xlink:href="#a"/><linearGradient id="n" x1="0.5" y1="1.073" x2="0.5" y2="-0.642" xlink:href="#a"/><linearGradient id="o" x1="0.5" y1="0.814" x2="0.5" y2="-0.455" xlink:href="#a"/><linearGradient id="q" x1="0.5" y1="1.099" x2="0.5" y2="-1.226" xlink:href="#a"/><linearGradient id="r" x1="0.5" y1="1.122" x2="0.5" y2="-1.292" xlink:href="#a"/></defs><g transform="translate(-1020.858 -151.452)"><path d="M1025.876,156.652c5.278,0,8.138,3.354,8.138,9.62s-2.86,9.621-8.138,9.621a12.391,12.391,0,0,1-5.018-.911,3.368,3.368,0,0,1,.988-2.5,13.088,13.088,0,0,0,3.666.547c2.652,0,4.68-1.144,4.966-5.564h-6.344a3.487,3.487,0,0,1-.26-1.379,2.865,2.865,0,0,1,.26-1.3h6.318c-.363-4.135-2.34-5.331-4.94-5.331a11.968,11.968,0,0,0-3.406.546,3.31,3.31,0,0,1-.988-2.443A11.054,11.054,0,0,1,1025.876,156.652Z" fill="url(#a)"/><path d="M1047.066,157.146a6.422,6.422,0,0,1,1.664-.234,7.472,7.472,0,0,1,1.769.234l-5.773,8.4,6.578,9.853a8.1,8.1,0,0,1-3.874,0l-5.486-8.164h-1.17V175.4a4.112,4.112,0,0,1-1.664.235,4.957,4.957,0,0,1-1.664-.235V157.146a4.874,4.874,0,0,1,1.69-.234,4.538,4.538,0,0,1,1.638.234v7.436h1.17Z" fill="url(#b)"/><path d="M1059.416,156.652c4.576,0,7.514,2.886,7.514,9.62s-2.86,9.621-7.514,9.621-7.515-2.886-7.515-9.621C1051.9,159.616,1054.839,156.652,1059.416,156.652Zm0,2.756c-2.392,0-4,1.352-4,6.864,0,5.487,1.612,6.865,4,6.865,2.444,0,4-1.378,4-6.865C1063.42,160.76,1061.86,159.408,1059.416,159.408Z" fill="url(#c)"/><path d="M1080.554,157.146a6.034,6.034,0,0,1,3.328,0V175.4a4.519,4.519,0,0,1-1.638.235,4.19,4.19,0,0,1-1.69-.235v-7.929h-6.864V175.4a4.964,4.964,0,0,1-1.664.235,4.121,4.121,0,0,1-1.665-.235V157.146a4.541,4.541,0,0,1,1.639-.234,4.874,4.874,0,0,1,1.69.234v7.462h6.864Z" fill="url(#d)"/><path d="M1094.827,156.652c4.576,0,7.514,2.886,7.514,9.62s-2.859,9.621-7.514,9.621-7.514-2.886-7.514-9.621C1087.313,159.616,1090.251,156.652,1094.827,156.652Zm0,2.756c-2.392,0-4,1.352-4,6.864,0,5.487,1.612,6.865,4,6.865,2.445,0,4.005-1.378,4.005-6.865C1098.832,160.76,1097.272,159.408,1094.827,159.408Z" fill="url(#c)"/><path d="M1121.062,156.912a9.283,9.283,0,0,1,2.158.234V175.4a4.7,4.7,0,0,1-1.638.235,5.229,5.229,0,0,1-1.69-.235v-5.693a81.887,81.887,0,0,1,.182-8.607h-.156a55.109,55.109,0,0,1-2.861,6.579l-1.82,3.821a3.309,3.309,0,0,1-.961.131,2.016,2.016,0,0,1-.833-.131c-.6-1.222-1.222-2.443-1.82-3.691a45.242,45.242,0,0,1-2.938-6.709h-.156a49.3,49.3,0,0,1,.312,7.957V175.4a4.288,4.288,0,0,1-1.56.235,4.244,4.244,0,0,1-1.482-.235V157.146a7.887,7.887,0,0,1,2-.234,9.835,9.835,0,0,1,1.976.234l2.366,4.758a43.1,43.1,0,0,1,2.237,5.1h.129a19.793,19.793,0,0,1,1.04-2.7c1.17-2.367,2.289-4.759,3.38-7.151A10.688,10.688,0,0,1,1121.062,156.912Z" fill="url(#d)"/><path d="M1139.261,156.912a5.656,5.656,0,0,1,1.924.234V175.4a4.521,4.521,0,0,1-1.638.235,4.189,4.189,0,0,1-1.69-.235v-6.343c0-5.045.26-7.463.26-7.463h-.1a59.532,59.532,0,0,1-2.886,6.345l-3.718,7.461a7.24,7.24,0,0,1-2.028.235,5.456,5.456,0,0,1-1.976-.235V157.146a4.538,4.538,0,0,1,1.638-.234,5.332,5.332,0,0,1,1.716.234v6.319c0,4.68-.234,7.956-.234,7.956h.1a49.729,49.729,0,0,1,3.016-6.864l3.693-7.411A5.645,5.645,0,0,1,1139.261,156.912Z" fill="url(#d)"/><path d="M1154.523,157.146a6.034,6.034,0,0,1,3.328,0V175.4a4.519,4.519,0,0,1-1.638.235,4.19,4.19,0,0,1-1.69-.235v-7.357a9.6,9.6,0,0,1-3.849.7c-3.744,0-6.084-1.481-6.084-6.057v-5.539a4.538,4.538,0,0,1,1.638-.234,4.885,4.885,0,0,1,1.691.234v5.539c0,2.469,1.144,3.2,3.2,3.2a7.967,7.967,0,0,0,3.406-.7Z" fill="url(#d)"/><path d="M1172.8,156.912a3.355,3.355,0,0,1,.26,1.248,3.773,3.773,0,0,1-.26,1.43h-7.41v5.2h6.11a3.73,3.73,0,0,1,.26,1.3,3.608,3.608,0,0,1-.26,1.379h-6.11v5.486h7.67a3.739,3.739,0,0,1,.26,1.3,3.605,3.605,0,0,1-.26,1.378h-11V156.912Z" fill="url(#d)"/><path d="M1183.227,156.652a9.8,9.8,0,0,1,4.5.911,3.157,3.157,0,0,1-.988,2.469,10.247,10.247,0,0,0-3.147-.546c-2.755,0-4.757,1.43-4.757,6.813s2,6.708,4.757,6.708a11.3,11.3,0,0,0,3.407-.546,3.449,3.449,0,0,1,.988,2.521,11.054,11.054,0,0,1-4.758.911c-5.149,0-7.879-3.354-7.879-9.621S1178.078,156.652,1183.227,156.652Z" fill="url(#c)"/><path d="M1200.386,157.146a6.423,6.423,0,0,1,1.664-.234,7.457,7.457,0,0,1,1.768.234l-5.772,8.4,6.578,9.853a6.609,6.609,0,0,1-1.976.235,6.541,6.541,0,0,1-1.9-.235l-5.486-8.164h-1.17V175.4a4.112,4.112,0,0,1-1.664.235,4.958,4.958,0,0,1-1.664-.235V157.146a4.875,4.875,0,0,1,1.69-.234,4.538,4.538,0,0,1,1.638.234v7.436h1.17Z" fill="url(#d)"/><path d="M1218.69,156.912a5.656,5.656,0,0,1,1.924.234V175.4a4.521,4.521,0,0,1-1.638.235,4.19,4.19,0,0,1-1.69-.235v-6.343c0-5.045.26-7.463.26-7.463h-.1a59.569,59.569,0,0,1-2.886,6.345l-3.718,7.461a7.239,7.239,0,0,1-2.028.235,5.457,5.457,0,0,1-1.976-.235V157.146a4.538,4.538,0,0,1,1.638-.234,5.339,5.339,0,0,1,1.716.234v6.319c0,4.68-.234,7.956-.234,7.956h.1a49.744,49.744,0,0,1,3.016-6.864l3.692-7.411A5.655,5.655,0,0,1,1218.69,156.912Z" fill="url(#d)"/><path d="M1236.63,156.912a5.654,5.654,0,0,1,1.924.234V175.4a4.519,4.519,0,0,1-1.638.235,4.19,4.19,0,0,1-1.69-.235v-6.343c0-5.045.26-7.463.26-7.463h-.1a59.532,59.532,0,0,1-2.886,6.345l-3.718,7.461a7.238,7.238,0,0,1-2.028.235,5.455,5.455,0,0,1-1.976-.235V157.146a4.53,4.53,0,0,1,1.638-.234,5.332,5.332,0,0,1,1.716.234v6.319c0,4.68-.234,7.956-.234,7.956h.1a49.6,49.6,0,0,1,3.016-6.864l3.692-7.411A5.654,5.654,0,0,1,1236.63,156.912Zm-1.95-5.46a2.672,2.672,0,0,1,1.508,1.664,6.279,6.279,0,0,1-9,0,2.67,2.67,0,0,1,1.508-1.664,5.5,5.5,0,0,0,5.98,0Z" fill="url(#m)"/><path d="M1029.462,181.967c8.527,0,13.148,5.42,13.148,15.543s-4.621,15.543-13.148,15.543a20.035,20.035,0,0,1-8.108-1.471,5.438,5.438,0,0,1,1.6-4.032,21.193,21.193,0,0,0,5.924.882c4.284,0,7.561-1.848,8.023-8.99h-10.25a5.613,5.613,0,0,1-.42-2.225,4.651,4.651,0,0,1,.42-2.1h10.208c-.588-6.678-3.781-8.611-7.981-8.611a19.326,19.326,0,0,0-5.5.883,5.359,5.359,0,0,1-1.6-3.949A17.873,17.873,0,0,1,1029.462,181.967Z" fill="url(#n)"/><path d="M1061.172,181.127a8.477,8.477,0,0,1,2.647.336v9.41a8.529,8.529,0,0,1,3.7-.756c5.671,0,8.149,3.99,8.149,11.468s-2.478,11.468-8.149,11.468a7.962,7.962,0,0,1-3.7-.882V222.8a8.477,8.477,0,0,1-2.647.336,7.554,7.554,0,0,1-2.646-.336V212.171a7.961,7.961,0,0,1-3.7.882c-5.671,0-8.149-3.99-8.149-11.468s2.478-11.468,8.149-11.468a8.529,8.529,0,0,1,3.7.756v-9.41A7.554,7.554,0,0,1,1061.172,181.127Zm-5.46,13.022c-2.563,0-3.781,1.891-3.781,7.436s1.218,7.394,3.781,7.394a5.614,5.614,0,0,0,3.066-.883V194.863A6.316,6.316,0,0,0,1055.712,194.149Zm10.921,0a6.316,6.316,0,0,0-3.066.714V208.1a5.614,5.614,0,0,0,3.066.883c2.563,0,3.781-1.849,3.781-7.394S1069.2,194.149,1066.633,194.149Z" fill="url(#o)"/><path d="M1093.932,181.127a8.485,8.485,0,0,1,2.647.336v9.41a8.529,8.529,0,0,1,3.7-.756c5.67,0,8.149,3.99,8.149,11.468s-2.479,11.468-8.149,11.468a7.961,7.961,0,0,1-3.7-.882V222.8a8.485,8.485,0,0,1-2.647.336,7.554,7.554,0,0,1-2.646-.336V212.171a7.961,7.961,0,0,1-3.7.882c-5.671,0-8.149-3.99-8.149-11.468s2.478-11.468,8.149-11.468a8.529,8.529,0,0,1,3.7.756v-9.41A7.554,7.554,0,0,1,1093.932,181.127Zm-5.461,13.022c-2.562,0-3.78,1.891-3.78,7.436s1.218,7.394,3.78,7.394a5.616,5.616,0,0,0,3.067-.883V194.863A6.318,6.318,0,0,0,1088.471,194.149Zm10.922,0a6.316,6.316,0,0,0-3.066.714V208.1a5.614,5.614,0,0,0,3.066.883c2.563,0,3.781-1.849,3.781-7.394S1101.956,194.149,1099.393,194.149Z" fill="url(#o)"/><path d="M1117.576,203.223c.379,4.285,2.269,5.377,5.209,5.377a12.465,12.465,0,0,0,4.915-1.008,5.777,5.777,0,0,1,1.471,3.738,13.244,13.244,0,0,1-7.142,1.723c-6.847,0-9.872-3.99-9.872-11.594,0-7.939,3.781-11.342,9.578-11.342,5.209,0,8.612,2.688,8.612,8.7a18.694,18.694,0,0,1-.462,4.41Zm4.159-8.99c-2.142,0-3.738,1.429-4.117,5.335h7.394c.042-.462.084-.923.084-1.386C1125.1,196,1124.381,194.233,1121.735,194.233Z" fill="url(#q)"/><path d="M1146.558,190.873a9.891,9.891,0,0,1,2.646-.336,10.578,10.578,0,0,1,2.6.336l-6.134,9.871,7.058,11.553a11.082,11.082,0,0,1-3.067.336,8.62,8.62,0,0,1-2.688-.336l-5.713-9.242h-1.26V212.3a9.383,9.383,0,0,1-2.6.336,9.658,9.658,0,0,1-2.688-.336V190.873a9.3,9.3,0,0,1,2.688-.336,10.16,10.16,0,0,1,2.6.336v8.275h1.344Z" fill="url(#r)"/><path d="M1171.548,190.537a5.622,5.622,0,0,1,.42,2.227,5.523,5.523,0,0,1-.42,2.183h-6.007V212.3a8.478,8.478,0,0,1-2.647.336,7.554,7.554,0,0,1-2.646-.336v-17.35h-6.007a5.107,5.107,0,0,1-.462-2.183,5.2,5.2,0,0,1,.462-2.227Z" fill="url(#r)"/></g></svg>