<svg xmlns="http://www.w3.org/2000/svg" xmlns:xlink="http://www.w3.org/1999/xlink" width="103.48" height="124.101" viewBox="0 0 103.48 124.101"><defs><linearGradient id="a" x1="0.939" y1="1.951" x2="0.383" y2="0.224" gradientUnits="objectBoundingBox"><stop offset="0.004" stop-color="#20385d"/><stop offset="1" stop-color="#a3b6e8"/></linearGradient><linearGradient id="b" x1="0.883" y1="1.767" x2="0.361" y2="0.04" xlink:href="#a"/><linearGradient id="c" x1="1.22" y1="2.396" x2="-0.526" y2="-2.452" xlink:href="#a"/><linearGradient id="d" x1="1.111" y1="2.844" x2="-0.732" y2="-4.224" xlink:href="#a"/><linearGradient id="e" x1="1.094" y1="2.568" x2="-1.01" y2="-4.241" xlink:href="#a"/><linearGradient id="f" x1="1.024" y1="2.433" x2="-0.893" y2="-4.635" xlink:href="#a"/><linearGradient id="g" x1="0.971" y1="2.152" x2="-0.924" y2="-4.657" xlink:href="#a"/><linearGradient id="h" x1="1.012" y1="1.96" x2="-1.176" y2="-4.849" xlink:href="#a"/><linearGradient id="i" x1="0.56" y1="0.674" x2="-0.629" y2="-3.044" xlink:href="#a"/><linearGradient id="j" x1="0.527" y1="0.405" x2="-1.127" y2="-4.386" xlink:href="#a"/><linearGradient id="k" x1="0.468" y1="0.381" x2="-1.449" y2="-6.687" xlink:href="#a"/><linearGradient id="l" x1="0.383" y1="0.162" x2="-1.53" y2="-6.906" xlink:href="#a"/><linearGradient id="m" x1="0.302" y1="-0.033" x2="-1.404" y2="-5.718" xlink:href="#a"/><linearGradient id="n" x1="0.297" y1="-0.28" x2="-1.547" y2="-7.348" xlink:href="#a"/><linearGradient id="o" x1="0.237" y1="-0.092" x2="-1.607" y2="-5.206" xlink:href="#a"/></defs><g transform="translate(-1302.222 -130.432)"><path d="M1305.132,171.793c0-7.041,4.96-11.281,9.52-13.761-4.48-2.719-8-6.639-8-13.44,0-8.641,6.48-14.16,17.52-14.16,10.48,0,16.961,4.72,16.961,13.28,0,6.32-3.52,10.32-7.12,12.88,5.2,2.881,9.52,6.961,9.52,14.4,0,10-7.2,15.441-19.6,15.441C1312.492,186.433,1305.132,181.473,1305.132,171.793Zm28.161-.32c0-5.441-6.241-7.6-12.641-10.4-2.56,1.84-5.92,5.12-5.92,10.321,0,4.56,3.44,7.2,9.521,7.2C1329.612,178.593,1333.293,176.033,1333.293,171.473Zm-16.8-27.522c0,4.881,5.36,7.121,11.281,9.681a11.736,11.736,0,0,0,4.4-9.04c0-4.321-2.8-6.721-8-6.721C1319.213,137.871,1316.492,140.191,1316.492,143.951Z" fill="url(#a)"/><path d="M1351.852,158.432c0-19.68,7.36-28,20.32-28s20.48,8.08,20.48,28-7.52,28-20.48,28S1351.852,178.353,1351.852,158.432Zm10.72,0c0,16.081,3.6,19.521,9.6,19.521,6.16,0,9.52-3.44,9.52-19.521,0-16.161-3.36-19.52-9.52-19.52C1366.172,138.912,1362.572,142.271,1362.572,158.432Z" fill="url(#b)"/><path d="M1310.7,198.034c.962-.181,1.17-.26,1.56-.884a2.721,2.721,0,0,1,2.106,1.222,3.062,3.062,0,0,1-2.834,2.523c-4.836.832-6.422,1.248-6.812,4.888h.1a4.232,4.232,0,0,1,4.16-2.314c3.432,0,5.72,1.82,5.72,6.812s-2.314,6.812-5.98,6.812-6.24-1.9-6.24-9.386C1302.482,199.959,1304.978,199.1,1310.7,198.034Zm-4.6,12.247c0,3.535,1.04,4.316,2.626,4.316s2.6-.781,2.6-4.316-1.014-4.316-2.6-4.316S1306.1,206.666,1306.1,210.281Z" fill="url(#c)"/><path d="M1327.468,203.156a6.122,6.122,0,0,1,1.638.208v13.261a5.489,5.489,0,0,1-1.586.208,6.3,6.3,0,0,1-1.69-.208v-3.3a51.731,51.731,0,0,1,.156-5.693h-.078c.181.052-1.326,2.678-2.523,4.706l-2.573,4.29a5.757,5.757,0,0,1-1.664.208,5.58,5.58,0,0,1-1.613-.208V203.364a5.493,5.493,0,0,1,1.587-.208,5.849,5.849,0,0,1,1.69.208v3.328c0,2.575-.078,5.669-.157,5.695h.079a21.415,21.415,0,0,1,1.248-2.574l3.848-6.449A5.666,5.666,0,0,1,1327.468,203.156Z" fill="url(#d)"/><path d="M1336.152,202.9c3.614,0,5.174,1.4,5.174,3.926a2.958,2.958,0,0,1-1.56,2.991v.1a2.916,2.916,0,0,1,1.924,3.042c0,2.418-1.56,4.134-5.851,4.134a10.092,10.092,0,0,1-4.29-.832,3,3,0,0,1,.885-2.21,10.042,10.042,0,0,0,3.3.469c1.638,0,2.626-.416,2.626-1.717,0-1.222-.728-1.664-2.315-1.664h-1.975a3.386,3.386,0,0,1-.234-1.274,2.779,2.779,0,0,1,.234-1.144h1.975c1.379,0,1.977-.52,1.977-1.69,0-1.352-1.118-1.664-2.393-1.664a11.181,11.181,0,0,0-2.963.39,3.042,3.042,0,0,1-.858-2.185S1332.98,202.9,1336.152,202.9Z" fill="url(#e)"/><path d="M1347.774,216.625a5.554,5.554,0,0,1-1.665.208,5.158,5.158,0,0,1-1.612-.208V203.364a5.057,5.057,0,0,1,1.638-.208,5.67,5.67,0,0,1,1.639.208v5.122h4.576v-5.122a5.89,5.89,0,0,1,1.638-.208,5.666,5.666,0,0,1,1.638.208v13.261a5.336,5.336,0,0,1-1.664.208,5.577,5.577,0,0,1-1.612-.208v-5.512h-4.576Z" fill="url(#f)"/><path d="M1361.813,211.009c.234,2.652,1.4,3.328,3.224,3.328a7.723,7.723,0,0,0,3.043-.624,3.571,3.571,0,0,1,.909,2.314,8.193,8.193,0,0,1-4.42,1.066c-4.238,0-6.11-2.47-6.11-7.176,0-4.915,2.34-7.021,5.928-7.021,3.224,0,5.33,1.665,5.33,5.383a11.573,11.573,0,0,1-.286,2.73Zm2.574-5.565c-1.326,0-2.314.884-2.548,3.3h4.577c.026-.285.051-.571.051-.857C1366.467,206.537,1366.026,205.444,1364.387,205.444Z" fill="url(#g)"/><path d="M1375.229,209.994c0,3.1.936,4.343,3.147,4.343a7.643,7.643,0,0,0,2.339-.364,3.4,3.4,0,0,1,.911,2.314,7.1,7.1,0,0,1-3.9.806c-3.978,0-5.85-2.47-5.85-7.1s1.872-7.1,5.85-7.1c2.678,0,3.64.676,3.64.676a3.312,3.312,0,0,1-.909,2.315,6.7,6.7,0,0,0-2.185-.338C1376.035,205.549,1375.229,206.9,1375.229,209.994Z" fill="url(#h)"/><path d="M1311.192,228.532a5.245,5.245,0,0,1,1.638.208v5.824a5.279,5.279,0,0,1,2.288-.468c3.511,0,5.045,2.47,5.045,7.1s-1.534,7.1-5.045,7.1a4.921,4.921,0,0,1-2.288-.547v6.579a5.245,5.245,0,0,1-1.638.208,4.677,4.677,0,0,1-1.638-.208v-6.579a4.92,4.92,0,0,1-2.288.547c-3.51,0-5.044-2.471-5.044-7.1s1.534-7.1,5.044-7.1a5.278,5.278,0,0,1,2.288.468V228.74A4.677,4.677,0,0,1,1311.192,228.532Zm-3.38,8.06c-1.586,0-2.34,1.17-2.34,4.6s.754,4.577,2.34,4.577a3.478,3.478,0,0,0,1.9-.546v-8.191A3.915,3.915,0,0,0,1307.812,236.592Zm6.76,0a3.916,3.916,0,0,0-1.9.442v8.191a3.478,3.478,0,0,0,1.9.546c1.586,0,2.341-1.144,2.341-4.577S1316.158,236.592,1314.572,236.592Z" fill="url(#i)"/><path d="M1329.731,249.515c-1.015,3.223-1.976,5.018-5.253,5.018a3.794,3.794,0,0,1-1.508-.286,3.441,3.441,0,0,1-.234-1.222,3.8,3.8,0,0,1,.234-1.3,9,9,0,0,0,1.2.1c1.274,0,1.819-.156,2.626-2.782l.312-1.014a2.45,2.45,0,0,1-1.015-.209l-4.68-13.26a5.848,5.848,0,0,1,1.69-.208,5.439,5.439,0,0,1,1.691.208l2.443,6.968a23.584,23.584,0,0,1,.911,3.277h.1a32.377,32.377,0,0,1,.832-3.277l2.106-6.968a4.685,4.685,0,0,1,1.586-.208,5.105,5.105,0,0,1,1.534.208Z" fill="url(#j)"/><path d="M1339.74,247.824a5.517,5.517,0,0,1-1.664.209,5.135,5.135,0,0,1-1.612-.209v-13.26a5.049,5.049,0,0,1,1.638-.208,5.666,5.666,0,0,1,1.638.208v5.123h4.577v-5.123a5.88,5.88,0,0,1,1.638-.208,5.663,5.663,0,0,1,1.637.208v13.26a5.306,5.306,0,0,1-1.664.209,5.549,5.549,0,0,1-1.611-.209v-5.512h-4.577Z" fill="url(#k)"/><path d="M1358.305,234.564a6.122,6.122,0,0,1,1.638-.208,6.54,6.54,0,0,1,1.612.208l-3.8,6.11,4.369,7.15a6.825,6.825,0,0,1-1.9.209,5.313,5.313,0,0,1-1.664-.209l-3.537-5.72h-.779v5.72a5.787,5.787,0,0,1-1.613.209,5.961,5.961,0,0,1-1.664-.209v-13.26a5.755,5.755,0,0,1,1.664-.208,6.285,6.285,0,0,1,1.613.208v5.123h.832Z" fill="url(#l)"/><path d="M1373.255,234.356a5.988,5.988,0,0,1,1.664.208v10.764h1.637v5.824a4.456,4.456,0,0,1-1.429.209,4.657,4.657,0,0,1-1.586-.209v-3.119h-9.491V234.564a5.362,5.362,0,0,1,1.612-.208,4.766,4.766,0,0,1,1.664.208v10.764h4.316V234.564A5.581,5.581,0,0,1,1373.255,234.356Z" fill="url(#m)"/><path d="M1389.114,234.356a6.122,6.122,0,0,1,1.638.208v13.26a5.464,5.464,0,0,1-1.586.209,6.276,6.276,0,0,1-1.69-.209v-3.3a52.218,52.218,0,0,1,.155-5.694h-.077c.182.053-1.326,2.678-2.522,4.707l-2.574,4.289a5.731,5.731,0,0,1-1.664.209,5.555,5.555,0,0,1-1.613-.209v-13.26a5.49,5.49,0,0,1,1.586-.208,5.852,5.852,0,0,1,1.691.208v3.329c0,2.574-.078,5.668-.157,5.693h.079a21.44,21.44,0,0,1,1.248-2.573l3.848-6.449A5.666,5.666,0,0,1,1389.114,234.356Z" fill="url(#n)"/><path d="M1404.064,234.356a6.124,6.124,0,0,1,1.638.208v13.26a5.466,5.466,0,0,1-1.586.209,6.276,6.276,0,0,1-1.69-.209v-3.3a51.743,51.743,0,0,1,.156-5.694h-.078a15.27,15.27,0,0,1-1.248,2.574l-3.848,6.422a5.73,5.73,0,0,1-1.664.209,5.556,5.556,0,0,1-1.613-.209v-13.26a5.49,5.49,0,0,1,1.586-.208,5.851,5.851,0,0,1,1.691.208v3.329c0,2.574-.078,5.668-.156,5.693h.078a21.614,21.614,0,0,1,1.248-2.573l3.848-6.449A5.666,5.666,0,0,1,1404.064,234.356Zm-1.4-5.226a2.41,2.41,0,0,1,1.378,1.509,5.717,5.717,0,0,1-8.216,0,2.41,2.41,0,0,1,1.378-1.509,5.49,5.49,0,0,0,5.46,0Z" fill="url(#o)"/></g></svg>