<svg xmlns="http://www.w3.org/2000/svg" xmlns:xlink="http://www.w3.org/1999/xlink" width="168.247" height="56.141" viewBox="0 0 168.247 56.141"><defs><linearGradient id="a" x1="0.5" y1="-0.298" x2="0.5" y2="3.124" gradientUnits="objectBoundingBox"><stop offset="0.004" stop-color="#20385d"/><stop offset="1" stop-color="#a3b6e8"/></linearGradient><linearGradient id="c" x1="0.5" y1="-0.298" x2="0.5" y2="3.124" xlink:href="#a"/><linearGradient id="i" x1="0.5" y1="-1.027" x2="0.5" y2="1.091" xlink:href="#a"/><linearGradient id="j" x1="0.5" y1="-1.691" x2="0.5" y2="1.102" xlink:href="#a"/><linearGradient id="k" x1="0.5" y1="-1.774" x2="0.5" y2="1.125" xlink:href="#a"/></defs><g transform="translate(-1496.158 -156.912)"><path d="M1506.558,156.912a3.244,3.244,0,0,1,.26,1.4,4.35,4.35,0,0,1-.26,1.456h-7.072V175.4a4.856,4.856,0,0,1-1.69.235,4.521,4.521,0,0,1-1.638-.235V156.912Z" fill="url(#a)"/><path d="M1514.046,156.912a7.5,7.5,0,0,1,2.028.234l6.215,18.252a5.464,5.464,0,0,1-1.821.235,4.113,4.113,0,0,1-1.612-.235l-1.4-4.16h-7.1l-1.4,4.16a4.616,4.616,0,0,1-1.612.235,4.215,4.215,0,0,1-1.534-.235l6.214-18.252A8.507,8.507,0,0,1,1514.046,156.912Zm-.182,3.484a26.007,26.007,0,0,1-.78,2.886l-1.82,5.279h5.278l-1.768-5.279a26.591,26.591,0,0,1-.806-2.886Z" fill="url(#a)"/><path d="M1528.137,175.4a4.517,4.517,0,0,1-1.637.235,4.193,4.193,0,0,1-1.691-.235V156.912h6.968a5.85,5.85,0,0,1,0,11.7h-3.64Zm3.173-9.542c1.82,0,2.781-1.143,2.781-3.094s-.961-3.094-2.781-3.094h-3.173v6.188Z" fill="url(#c)"/><path d="M1545.765,156.912a7.5,7.5,0,0,1,2.029.234l6.213,18.252a5.451,5.451,0,0,1-1.819.235,4.106,4.106,0,0,1-1.612-.235l-1.4-4.16h-7.1l-1.4,4.16a4.616,4.616,0,0,1-1.612.235,4.215,4.215,0,0,1-1.534-.235l6.214-18.252A8.505,8.505,0,0,1,1545.765,156.912Zm-.181,3.484a26.154,26.154,0,0,1-.781,2.886l-1.82,5.279h5.278l-1.768-5.279a26.591,26.591,0,0,1-.806-2.886Z" fill="url(#c)"/><path d="M1566.695,157.146a6.038,6.038,0,0,1,3.329,0V175.4a4.524,4.524,0,0,1-1.639.235,4.2,4.2,0,0,1-1.69-.235v-7.929h-6.864V175.4a4.958,4.958,0,0,1-1.664.235,4.111,4.111,0,0,1-1.664-.235V157.146a4.537,4.537,0,0,1,1.638-.234,4.875,4.875,0,0,1,1.69.234v7.462h6.864Z" fill="url(#c)"/><path d="M1585.623,156.912a4.045,4.045,0,0,1,.26,1.4,4.164,4.164,0,0,1-.26,1.456h-4.6V175.4a4.957,4.957,0,0,1-1.664.235,4.112,4.112,0,0,1-1.664-.235V159.772h-4.732a3.533,3.533,0,0,1-.26-1.4,4.164,4.164,0,0,1,.26-1.456Z" fill="url(#c)"/><path d="M1600.417,156.912a5.654,5.654,0,0,1,1.924.234V175.4a4.519,4.519,0,0,1-1.638.235,4.19,4.19,0,0,1-1.69-.235v-6.343c0-5.045.26-7.463.26-7.463h-.1a59.532,59.532,0,0,1-2.886,6.345l-3.718,7.461a7.238,7.238,0,0,1-2.028.235,5.456,5.456,0,0,1-1.976-.235V157.146a4.538,4.538,0,0,1,1.638-.234,5.332,5.332,0,0,1,1.716.234v6.319c0,4.68-.234,7.956-.234,7.956h.1a49.729,49.729,0,0,1,3.016-6.864l3.692-7.411A5.654,5.654,0,0,1,1600.417,156.912Z" fill="url(#c)"/><path d="M1618.357,156.912a5.655,5.655,0,0,1,1.924.234V175.4a4.527,4.527,0,0,1-1.638.235,4.19,4.19,0,0,1-1.69-.235v-6.343c0-5.045.26-7.463.26-7.463h-.1a59.506,59.506,0,0,1-2.887,6.345l-3.717,7.461a7.26,7.26,0,0,1-2.029.235,5.456,5.456,0,0,1-1.976-.235V157.146a4.538,4.538,0,0,1,1.638-.234,5.332,5.332,0,0,1,1.716.234v6.319c0,4.68-.234,7.956-.234,7.956h.1a49.729,49.729,0,0,1,3.016-6.864l3.692-7.411A5.666,5.666,0,0,1,1618.357,156.912Z" fill="url(#c)"/><path d="M1512.955,182.766a10.383,10.383,0,0,1,2.689-.378,12.044,12.044,0,0,1,2.856.378l-9.326,13.568,10.628,15.921a10.719,10.719,0,0,1-3.192.378,10.6,10.6,0,0,1-3.066-.378l-8.864-13.191h-1.89v13.191a6.677,6.677,0,0,1-2.689.378,8.04,8.04,0,0,1-2.688-.378V182.766a7.875,7.875,0,0,1,2.73-.378,7.34,7.34,0,0,1,2.647.378v12.013h1.89Z" fill="url(#i)"/><path d="M1530.552,190.117c6.133,0,8.4,2.52,8.4,7.813V212.3a4.53,4.53,0,0,1-2.058.336,6.285,6.285,0,0,1-2.142-.336l-.8-2.269c-.967,1.975-3.109,3.025-6.134,3.025-3.99,0-6.511-2.352-6.511-7.268,0-4.746,2.983-6.679,8.192-6.679,1.47,0,2.94.084,4.158.21v-1.091c0-2.185-.672-3.655-3.78-3.655a16.926,16.926,0,0,0-5.377,1.008,3.594,3.594,0,0,1-1.176-1.555,4.4,4.4,0,0,1-.337-2.226A17.3,17.3,0,0,1,1530.552,190.117Zm-.378,12.518c-2.143,0-3.4.883-3.4,3.15,0,2.395,1.134,3.235,3.025,3.235,2.94,0,3.864-2.731,3.864-4.957V202.8C1532.61,202.719,1531.392,202.635,1530.174,202.635Z" fill="url(#j)"/><path d="M1560.835,212.3a10.588,10.588,0,0,1-5.293,0v-7.856a12.514,12.514,0,0,1-3.991.462c-5.124,0-8.317-1.932-8.317-7.182v-6.848a10.59,10.59,0,0,1,5.293,0v6.889c0,2.185,1.176,3.066,3.529,3.066a9.262,9.262,0,0,0,3.486-.545v-9.41a10.588,10.588,0,0,1,5.293,0Z" fill="url(#k)"/><path d="M1570.828,203.223c.379,4.285,2.269,5.377,5.209,5.377a12.465,12.465,0,0,0,4.915-1.008,5.772,5.772,0,0,1,1.47,3.738,13.239,13.239,0,0,1-7.141,1.723c-6.847,0-9.872-3.99-9.872-11.594,0-7.939,3.781-11.342,9.578-11.342,5.209,0,8.612,2.688,8.612,8.7a18.694,18.694,0,0,1-.462,4.41Zm4.159-8.99c-2.142,0-3.738,1.429-4.117,5.335h7.394c.042-.462.084-.923.084-1.386C1578.348,196,1577.633,194.233,1574.987,194.233Z" fill="url(#j)"/><path d="M1592.5,201.585c0,5,1.513,7.015,5.083,7.015a12.355,12.355,0,0,0,3.781-.588,5.491,5.491,0,0,1,1.47,3.738s-1.806,1.3-6.3,1.3c-6.427,0-9.452-3.99-9.452-11.468s3.025-11.468,9.452-11.468c4.327,0,5.881,1.092,5.881,1.092a5.34,5.34,0,0,1-1.47,3.738,10.8,10.8,0,0,0-3.529-.546C1593.8,194.4,1592.5,196.586,1592.5,201.585Z" fill="url(#j)"/><path d="M1622.448,190.537a5.622,5.622,0,0,1,.42,2.227,5.523,5.523,0,0,1-.42,2.183h-6.007V212.3a8.479,8.479,0,0,1-2.647.336,7.555,7.555,0,0,1-2.646-.336v-17.35h-6.007a5.1,5.1,0,0,1-.463-2.183,5.187,5.187,0,0,1,.463-2.227Z" fill="url(#k)"/><path d="M1642.691,196.5a5.313,5.313,0,0,1-2.268,4.747,5.265,5.265,0,0,1,3.108,5.04c0,3.823-2.52,6.344-6.847,6.344H1626.35v-22.1h10.25C1640.339,190.537,1642.691,192.932,1642.691,196.5Zm-7.519,3.192c1.6,0,2.394-1.175,2.394-2.73,0-1.513-.8-2.689-2.394-2.689H1631.6v5.419Zm.126,9.2a2.517,2.517,0,0,0,2.856-2.731c0-1.765-.8-2.857-2.856-2.857h-3.7V208.9Z" fill="url(#k)"/><path d="M1656,190.117c6.133,0,8.4,2.52,8.4,7.813V212.3a4.53,4.53,0,0,1-2.058.336,6.3,6.3,0,0,1-2.143-.336l-.8-2.269c-.966,1.975-3.109,3.025-6.133,3.025-3.991,0-6.511-2.352-6.511-7.268,0-4.746,2.982-6.679,8.191-6.679,1.47,0,2.941.084,4.159.21v-1.091c0-2.185-.672-3.655-3.781-3.655a16.934,16.934,0,0,0-5.377,1.008,3.594,3.594,0,0,1-1.176-1.555,4.4,4.4,0,0,1-.336-2.226A17.3,17.3,0,0,1,1656,190.117Zm-.378,12.518c-2.143,0-3.4.883-3.4,3.15,0,2.395,1.134,3.235,3.024,3.235,2.941,0,3.865-2.731,3.865-4.957V202.8C1658.062,202.719,1656.844,202.635,1655.626,202.635Z" fill="url(#j)"/></g></svg>