<svg xmlns="http://www.w3.org/2000/svg" xmlns:xlink="http://www.w3.org/1999/xlink" width="1030" height="301" viewBox="0 0 1030 301"><defs><linearGradient id="a" x1="0.5" y1="0.346" x2="0.5" y2="1.029" gradientUnits="objectBoundingBox"><stop offset="0.003" stop-color="#95d0e8" stop-opacity="0.329"/><stop offset="1" stop-color="#95d0e8" stop-opacity="0"/></linearGradient><linearGradient id="b" x1="0.5" y1="0.446" x2="0.5" y2="1.032" xlink:href="#a"/><linearGradient id="c" x1="0.5" y1="0.288" x2="0.5" y2="1.041" xlink:href="#a"/><linearGradient id="d" x1="0.5" y1="0.303" x2="0.5" y2="1.04" xlink:href="#a"/><linearGradient id="e" x1="0.5" y1="-0.029" x2="0.5" y2="0.896" gradientUnits="objectBoundingBox"><stop offset="0" stop-color="#1969a9"/><stop offset="0.892" stop-color="#1969a9" stop-opacity="0"/></linearGradient><linearGradient id="g" y1="-0.372" y2="0.861" xlink:href="#e"/><linearGradient id="h" y1="0.145" y2="0.914" xlink:href="#e"/><linearGradient id="i" y1="-0.178" y2="0.881" xlink:href="#e"/></defs><g transform="translate(-778.864 -356)"><path d="M1421.864,421v6l73-16v-7Z" fill="#93b2c2"/><path d="M1755.864,407v7l-193,38-6.91-4.878Z" fill="#93b2c2"/><path d="M1776.864,471l17-2v6l-17,2Z" fill="#93b2c2"/><path d="M949.864,400V390l97-34v12Z" fill="#93b2c2"/><path d="M778.864,450v9l72-25V424Z" fill="#93b2c2"/><path d="M1341.472,486.838,1426.864,470v6l-77.124,14.51Z" fill="#93b2c2"/><path d="M1500.864,458v6l56-11-6.441-4.363Z" fill="#fff" opacity="0.27"/><path d="M1424.531,426V657h70.333V411Z" fill="url(#a)"/><path d="M949.864,400V655h96.5V368Z" fill="url(#b)"/><path d="M778.864,456.813V655h73V431.943Z" fill="url(#c)"/><path d="M1776.864,438.206V655h-21V411Z" fill="#fff" opacity="0.21"/><path d="M1808.864,493.293V655h-15V473Z" fill="#fff" opacity="0.21"/><line y2="197" transform="translate(1555.864 456)" fill="none" stroke="#fff" stroke-miterlimit="10" stroke-width="3" opacity="0.27"/><line y2="142" transform="translate(1376.364 511)" fill="none" stroke="#fff" stroke-miterlimit="10" stroke-width="3" opacity="0.27"/><path d="M1557.864,464l186-37V655l-186-5Z" fill="url(#d)"/><path d="M1756.021,414.636V639h5.842V422.206Z" opacity="0.17" fill="url(#e)"/><path d="M1495.021,411.636V636h5.842V419.206Z" opacity="0.17" fill="url(#e)"/><path d="M1794.02,475.739V644h4.844V482.293Z" opacity="0.17" fill="url(#g)"/><path d="M1042.986,374V644h7.031V383.109Z" opacity="0.17" fill="url(#h)"/><path d="M849.986,439V635h7.031V445.612Z" opacity="0.17" fill="url(#i)"/><line y1="65.25" x2="55.75" transform="translate(1421.864 439.75)" fill="none" opacity="0.27" stroke-linecap="round" stroke-linejoin="round" stroke-width="1" stroke="#084870"/><line y1="85" x2="74" transform="translate(1422.364 437.5)" fill="none" opacity="0.27" stroke-linecap="round" stroke-linejoin="round" stroke-width="1" stroke="#084870"/><line y1="44.5" x2="36" transform="translate(1421.364 442)" fill="none" opacity="0.27" stroke-linecap="round" stroke-linejoin="round" stroke-width="1" stroke="#084870"/><line y1="21" x2="17" transform="translate(1421.364 447.5)" fill="none" opacity="0.27" stroke-linecap="round" stroke-linejoin="round" stroke-width="1" stroke="#084870"/><line y1="66" x2="58" transform="translate(1439.364 455.5)" fill="none" opacity="0.27" stroke-linecap="round" stroke-linejoin="round" stroke-width="1" stroke="#084870"/><line y1="45" x2="39.5" transform="translate(1458.364 474.5)" fill="none" opacity="0.27" stroke-linecap="round" stroke-linejoin="round" stroke-width="1" stroke="#084870"/><line y1="22" x2="19" transform="translate(1478.364 494.5)" fill="none" opacity="0.27" stroke-linecap="round" stroke-linejoin="round" stroke-width="1" stroke="#084870"/><line x1="57" y1="48" transform="translate(1421.364 468.5)" fill="none" opacity="0.27" stroke-linecap="round" stroke-linejoin="round" stroke-width="1" stroke="#084870"/><line x1="37" y1="33" transform="translate(1421.364 486.5)" fill="none" opacity="0.27" stroke-linecap="round" stroke-linejoin="round" stroke-width="1" stroke="#084870"/><line x1="18" y1="16" transform="translate(1421.364 505.5)" fill="none" opacity="0.27" stroke-linecap="round" stroke-linejoin="round" stroke-width="1" stroke="#084870"/><path d="M1477.614,439.75l19.75,15.75,20,10,12-10,30.5,20,184.5-25" fill="none" stroke="#084870" stroke-linecap="round" stroke-linejoin="round" stroke-width="1" opacity="0.27"/><path d="M1457.364,442l40.5,32.5,25.5,13,12-11,24.5,16,184.5-22" fill="none" stroke="#084870" stroke-linecap="round" stroke-linejoin="round" stroke-width="1" opacity="0.27"/><path d="M1438.364,447.5l59,47,32,15,12-12,18.5,11,184.5-18" fill="none" stroke="#084870" stroke-linecap="round" stroke-linejoin="round" stroke-width="1" opacity="0.27"/><path d="M1421.364,451.5l75,61,38,17,12-11,13.5,6,183.5-14" fill="none" stroke="#084870" stroke-linecap="round" stroke-linejoin="round" stroke-width="1" opacity="0.27"/><line y1="80.704" x2="68.954" transform="translate(951.982 402.283)" fill="none" opacity="0.27" stroke-linecap="round" stroke-linejoin="round" stroke-width="1.237" stroke="#084870"/><line y1="105.132" x2="91.526" transform="translate(952.601 399.5)" fill="none" opacity="0.27" stroke-linecap="round" stroke-linejoin="round" stroke-width="1.237" stroke="#084870"/><line y1="55.039" x2="44.526" transform="translate(951.364 405.066)" fill="none" opacity="0.27" stroke-linecap="round" stroke-linejoin="round" stroke-width="1.237" stroke="#084870"/><line y1="81.632" x2="71.737" transform="translate(973.627 421.763)" fill="none" opacity="0.27" stroke-linecap="round" stroke-linejoin="round" stroke-width="1.237" stroke="#084870"/><line y1="55.658" x2="48.855" transform="translate(997.127 445.263)" fill="none" opacity="0.27" stroke-linecap="round" stroke-linejoin="round" stroke-width="1.237" stroke="#084870"/><line y1="27.211" x2="23.5" transform="translate(1021.864 470)" fill="none" opacity="0.27" stroke-linecap="round" stroke-linejoin="round" stroke-width="1.237" stroke="#084870"/><line x1="70.5" y1="59.368" transform="translate(951.364 437.842)" fill="none" opacity="0.27" stroke-linecap="round" stroke-linejoin="round" stroke-width="1.237" stroke="#084870"/><line x1="45.763" y1="40.816" transform="translate(951.364 460.105)" fill="none" opacity="0.27" stroke-linecap="round" stroke-linejoin="round" stroke-width="1.237" stroke="#084870"/><path d="M1020.936,402.283l24.428,19.48,24.737,12.368,14.842-12.368L1375.667,532.5" fill="none" stroke="#084870" stroke-linecap="round" stroke-linejoin="round" stroke-width="1.237" opacity="0.27"/><path d="M995.89,405.066l50.092,40.2,31.539,16.079,14.842-13.605,283,99.763" fill="none" stroke="#084870" stroke-linecap="round" stroke-linejoin="round" stroke-width="1.237" opacity="0.27"/><path d="M972.39,411.868,1045.364,470l39.579,18.553,14.842-14.842L1372.364,562.5" fill="none" stroke="#084870" stroke-linecap="round" stroke-linejoin="round" stroke-width="1.237" opacity="0.27"/><path d="M951.364,416.816l92.763,75.447,47,21.026,14.842-13.605L1324.364,565.5" fill="none" stroke="#084870" stroke-linecap="round" stroke-linejoin="round" stroke-width="1.237" opacity="0.27"/><line y1="55.551" x2="47.463" transform="translate(780.79 465.182)" fill="none" opacity="0.27" stroke-linecap="round" stroke-linejoin="round" stroke-width="0.851" stroke="#084870"/><line y1="72.365" x2="63" transform="translate(781.215 463.267)" fill="none" opacity="0.27" stroke-linecap="round" stroke-linejoin="round" stroke-width="0.851" stroke="#084870"/><line y1="37.885" x2="30.649" transform="translate(780.364 467.098)" fill="none" opacity="0.27" stroke-linecap="round" stroke-linejoin="round" stroke-width="0.851" stroke="#084870"/><line y1="56.189" x2="49.378" transform="translate(795.688 478.591)" fill="none" opacity="0.27" stroke-linecap="round" stroke-linejoin="round" stroke-width="0.851" stroke="#084870"/><line y1="38.311" x2="33.628" transform="translate(811.864 494.767)" fill="none" opacity="0.27" stroke-linecap="round" stroke-linejoin="round" stroke-width="0.851" stroke="#084870"/><line y1="18.73" x2="16.176" transform="translate(828.891 511.794)" fill="none" opacity="0.27" stroke-linecap="round" stroke-linejoin="round" stroke-width="0.851" stroke="#084870"/><line x1="48.527" y1="40.865" transform="translate(780.364 489.659)" fill="none" opacity="0.27" stroke-linecap="round" stroke-linejoin="round" stroke-width="0.851" stroke="#084870"/><line x1="31.5" y1="28.095" transform="translate(780.364 504.983)" fill="none" opacity="0.27" stroke-linecap="round" stroke-linejoin="round" stroke-width="0.851" stroke="#084870"/><path d="M828.252,465.182c8.21,6,14.4,14.261,24.578,17.291" fill="none" stroke="#084870" stroke-linecap="round" stroke-linejoin="round" stroke-width="0.851" opacity="0.27"/><path d="M811.012,467.1l15.93,12.783c6.03,4.839,11.89,10.3,18.274,14.664a67.505,67.505,0,0,0,7.55,3.93" fill="none" stroke="#084870" stroke-linecap="round" stroke-linejoin="round" stroke-width="0.851" opacity="0.27"/><path d="M794.837,471.78c17.534,13.857,32.677,27.624,51.262,40.7,2.065,1.377,4.13,2.753,6.683,2.928" fill="none" stroke="#084870" stroke-linecap="round" stroke-linejoin="round" stroke-width="0.851" opacity="0.27"/><path d="M780.364,475.186c20.994,16.646,40.955,34.543,63.67,51.751,2.753,1.377,6.2,2.753,8.83,4.05" fill="none" stroke="#084870" stroke-linecap="round" stroke-linejoin="round" stroke-width="0.851" opacity="0.27"/><path d="M1562.864,452l-68-48v7l62,42Z" fill="#cee4f2"/><path d="M1775.864,438v-7l-20-24v7Z" fill="#cee4f2"/><path d="M1808.864,487v5l-15-17v-6Z" fill="#cee4f2"/><path d="M1046.864,356v12l331,144v-9Z" fill="#cee4f2"/><path d="M951.864,465v-8l-101-33v10Z" fill="#cee4f2"/></g></svg>