<svg xmlns="http://www.w3.org/2000/svg" width="60.826" height="60.827" viewBox="0 0 60.826 60.827"><path d="M5542.062,2293.469a49.885,49.885,0,0,1-49.829-49.829v-6.472a4.532,4.532,0,0,1,4.526-4.526h16.18a1.293,1.293,0,0,1,1.23.878l6.469,19.408a1.3,1.3,0,0,1-.644,1.561l-8.8,4.378,1.025,1.79a34.478,34.478,0,0,0,12.792,12.792l.45.258h1.72l.571-1.076,3.462-6.925a1.283,1.283,0,0,1,1.543-.636l19.4,6.466a1.292,1.292,0,0,1,.9,1.229v16.179a4.53,4.53,0,0,1-4.525,4.525Zm-47.25-49.829a47.3,47.3,0,0,0,47.25,47.25h8.419v-17.2l-17.5-5.834-4.376,8.832a1.278,1.278,0,0,1-1.142.689,1.265,1.265,0,0,1-.525-.114,36.989,36.989,0,0,1-18.5-18.474,1.286,1.286,0,0,1,.6-1.668l8.811-4.445-5.832-17.455h-17.2Zm37.543,11a1.29,1.29,0,0,1-1.29-1.289v-16.18a1.29,1.29,0,0,1,2.579,0v13.081l17.149-17.148a1.289,1.289,0,0,1,1.828,1.789l-17.207,17.168h13.12a1.289,1.289,0,1,1,0,2.579Z" transform="translate(-5492.233 -2232.642)" fill="#fff"/></svg>