<svg xmlns="http://www.w3.org/2000/svg" xmlns:xlink="http://www.w3.org/1999/xlink" width="247.316" height="158.174" viewBox="0 0 247.316 158.174"><defs><clipPath id="a"><path d="M826.116,85.788a2.655,2.655,0,0,0-1.921,3.061l1.332,6.993.013.064A2.655,2.655,0,0,0,828.7,97.94q2.166-.468,4.3-1.041,1.89-.506,3.643-1.063l.106-.037a2.655,2.655,0,0,0,1.583-3.4l-2.452-6.717a2.656,2.656,0,0,0-3.181-1.654Zm-.75-2.8,6.582-1.763a5.55,5.55,0,0,1,6.651,3.458l2.453,6.717a5.551,5.551,0,0,1-3.311,7.118c-.073.027-.147.052-.222.076q-1.816.578-3.771,1.1-2.2.591-4.44,1.074a5.551,5.551,0,0,1-6.6-4.253c-.01-.045-.019-.089-.027-.134l-1.332-6.993A5.552,5.552,0,0,1,825.366,82.99ZM817.1,98.049a57.955,57.955,0,0,0-13.284,7.359c-2.867,2.293-4.077,4.259-3.742,5.511.493,1.84,4.477,3.192,11.058,3.28,7.052.1,16.257-1.229,25.788-3.782s18.164-6.01,24.224-9.618c5.654-3.368,8.429-6.53,7.936-8.37-.342-1.277-2.446-2.389-6.191-2.931a57.141,57.141,0,0,0-14.221.2l.013.039c.5,1.59.764,2.468,1.014,3.473a1.448,1.448,0,1,1-2.811.7c-.231-.928-.478-1.761-.964-3.3a108.488,108.488,0,0,0-4.77-10.886,7.242,7.242,0,0,0-8.4-3.865l-8.434,2.26a1.446,1.446,0,0,1-1.662-.736,34,34,0,0,0-4.187-6.658A5.649,5.649,0,0,0,817.05,69.5a.75.75,0,0,0-.5-.137c-.085.022-.183.1-.316.331a5.176,5.176,0,0,0-.52,1.718,32.515,32.515,0,0,0,.073,7.739c.9,8.887,1.524,13.5,2.366,17.173A1.448,1.448,0,0,1,817.1,98.049Zm32.556,11.323c-3.741,1.415-7.781,2.715-11.987,3.842-4.157,1.114-8.259,2-12.165,2.644.3.756.7,1.731.941,2.28.3.68.573,1.258.82,1.713a6.517,6.517,0,0,0,7.415,3.188l10.668-2.859a6.516,6.516,0,0,0,4.824-6.562c-.02-.5-.079-1.127-.171-1.86C849.93,111.18,849.775,110.146,849.657,109.372Zm2.761-1.087c.091.572.349,2.242.458,3.114.1.806.167,1.508.191,2.1a9.413,9.413,0,0,1-6.969,9.479l-10.668,2.858a9.411,9.411,0,0,1-10.71-4.6c-.291-.536-.6-1.183-.927-1.931-.355-.81-.975-2.355-1.23-3a78.364,78.364,0,0,1-11.469.793c-7.811-.105-12.848-1.814-13.816-5.426-1.309-4.883,5.778-10.726,17.789-15.9-.749-3.63-1.343-8.241-2.164-16.329-.768-7.818-.081-12.076,2.895-12.874,2.78-.744,5.526,2.158,8.886,8.463L832,73.067a10.137,10.137,0,0,1,11.765,5.411q2.55,5.324,3.848,8.435c13.46-1.7,22.929-.228,24.267,4.767.968,3.612-2.54,7.611-9.251,11.607A78.1,78.1,0,0,1,852.418,108.285Z" fill="none"/></clipPath><clipPath id="b"><rect width="800" height="600" transform="translate(435.644 -172.773)" fill="none"/></clipPath><clipPath id="c"><path d="M932.368,169.992l.668-7.855H939V185.7a12.822,12.822,0,0,0,3.565.445,13.856,13.856,0,0,0,3.4-.445V156.845H926.909l-1,12.924c-.669,8.634-2.34,11.085-3.844,11.419a6.63,6.63,0,0,1-2.117.056,7.363,7.363,0,0,0-.445,2.451,5.989,5.989,0,0,0,.445,2.34,9.644,9.644,0,0,0,2.841.445C927.466,186.48,931.2,183.862,932.368,169.992Zm-22.728-3.008c0-2.9-.947-5.237-4.456-5.237-2.841,0-4.958,1.894-5.459,7.075h9.8C909.584,168.209,909.64,167.6,909.64,166.984Zm6.35,6.684H899.669c.5,5.682,3.008,7.131,6.907,7.131a16.528,16.528,0,0,0,6.518-1.337,7.663,7.663,0,0,1,1.949,4.957s-3.286,2.284-9.469,2.284c-9.08,0-13.091-5.292-13.091-15.374,0-10.528,5.013-15.041,12.7-15.041,6.907,0,11.419,3.566,11.419,11.531A24.786,24.786,0,0,1,915.99,173.668Zm-49.967-16.823a6.888,6.888,0,0,0-.613,2.953,6.767,6.767,0,0,0,.613,2.9h7.966V185.7a10.029,10.029,0,0,0,3.509.445,11.261,11.261,0,0,0,3.51-.445V162.694h7.966a7.323,7.323,0,0,0,.557-2.9,7.457,7.457,0,0,0-.557-2.953Zm-12.143.446-8.245,13.815a46.23,46.23,0,0,0-2.674,5.515h-.167c.167-.056.335-6.685.335-12.2v-7.13a12.522,12.522,0,0,0-3.621-.446,11.753,11.753,0,0,0-3.4.446V185.7a11.963,11.963,0,0,0,3.453.445,12.353,12.353,0,0,0,3.566-.445l5.514-9.192c2.563-4.345,5.794-9.971,5.4-10.082h.167c-.167.167-.334,4.9-.334,12.2V185.7a13.518,13.518,0,0,0,3.62.445,11.778,11.778,0,0,0,3.4-.445v-28.41a13.1,13.1,0,0,0-3.509-.446A12.12,12.12,0,0,0,853.88,157.291Zm-39.551,23.9h4.9c2.507,0,3.788-1.336,3.788-3.62,0-2.34-1.058-3.788-3.788-3.788h-4.9Zm0-12.2h4.735c2.117,0,3.175-1.56,3.175-3.621,0-2-1.058-3.565-3.175-3.565h-4.735Zm6.629-12.144c4.958,0,8.077,3.176,8.077,7.911,0,2.785-1,5.013-3.008,6.294a6.982,6.982,0,0,1,4.122,6.685c0,5.069-3.342,8.411-9.08,8.411h-13.7v-29.3Zm-27.741,16.266c-1.393-.111-3.008-.223-4.624-.223-2.84,0-4.512,1.17-4.512,4.178,0,3.175,1.5,4.29,4.011,4.29,3.9,0,5.125-3.621,5.125-6.574Zm-14.149-14.594a22.927,22.927,0,0,1,10.027-2.229c8.133,0,11.141,3.343,11.141,10.362V185.7a6.018,6.018,0,0,1-2.73.445,8.347,8.347,0,0,1-2.841-.445l-1.058-3.008c-1.281,2.618-4.122,4.01-8.133,4.01-5.292,0-8.634-3.119-8.634-9.637,0-6.294,3.955-8.857,10.862-8.857,1.95,0,3.9.112,5.515.279v-1.449c0-2.9-.891-4.846-5.013-4.846a22.448,22.448,0,0,0-7.131,1.337,4.766,4.766,0,0,1-1.559-2.061A5.833,5.833,0,0,1,779.068,158.517ZM765.086,171.5c0-7.855-2.061-9.526-5.57-9.526-3.12,0-5.014,2.507-5.014,6.016v7.019c0,3.51,1.894,6.016,5.014,6.016C763.025,181.021,765.086,179.35,765.086,171.5ZM754.5,159.185c1.56-1.894,3.955-2.9,7.52-2.9,6.239,0,10.306,3.844,10.306,15.208S768.261,186.7,762.022,186.7c-3.565,0-5.96-1-7.52-2.9v14.371a11.42,11.42,0,0,1-3.565.446,10.215,10.215,0,0,1-3.454-.446V157.291a10.215,10.215,0,0,1,3.454-.446,11.42,11.42,0,0,1,3.565.446Zm-29.858-2.34V185.7a10.039,10.039,0,0,0,3.51.445,11.25,11.25,0,0,0,3.509-.445V162.583h10.751a7.208,7.208,0,0,0,.557-2.841,7.678,7.678,0,0,0-.557-2.9Z" fill="none" clip-rule="evenodd"/></clipPath></defs><g transform="translate(-711.644 -56.071)"><path d="M828.13,116.519A18.652,18.652,0,0,1,810,101.885c-.035-.156-.071-.337-.1-.519l-1.318-6.923A18.623,18.623,0,0,1,822,73.054l6.58-1.763A18.542,18.542,0,0,1,850.81,82.846l2.453,6.718A18.552,18.552,0,0,1,842.2,113.353c-.224.082-.473.167-.723.246-1.408.448-2.875.877-4.363,1.275-1.668.447-3.37.859-5.058,1.224a18.644,18.644,0,0,1-3.926.421Z" fill="#e1efff"/><path d="M832.993,141.778a22.475,22.475,0,0,1-18.045-9.122c-1.056.043-2.091.065-3.1.065q-.473,0-.934-.006c-18.382-.248-24.392-8.326-26.2-15.059-2.693-10.055,2.714-19.026,16.075-26.693-.253-2.126-.522-4.6-.826-7.593-.555-5.649-2.241-22.8,12.466-26.743a16.334,16.334,0,0,1,4.217-.556c5.121,0,9.716,2.242,13.69,6.67A23.13,23.13,0,0,1,855.486,75.48l.189.4c.573-.014,1.139-.021,1.693-.021,20.034,0,25.558,9.449,27.067,15.081,1.8,6.733.64,16.735-15.157,26.141-1.051.627-2.166,1.251-3.333,1.867a22.42,22.42,0,0,1-16.483,19.212l-10.667,2.858A22.441,22.441,0,0,1,832.993,141.778Zm-2.815-49.145c.209,1.315.419,2.421.645,3.408a14.624,14.624,0,0,1,.264,5.072q1.233-.3,2.468-.633c.29-.078.579-.156.869-.236-.057-.194-.109-.389-.158-.586-.146-.586-.319-1.17-.739-2.5-.043-.135-.417-1.255-2.071-4.869Z" fill="#e1efff"/><path d="M922.786,202.1a22.5,22.5,0,0,1-7.113-1.168,13.075,13.075,0,0,1-7.489-6.741,18.751,18.751,0,0,1-1.684-7.877,20.011,20.011,0,0,1,1.376-7.28A12.887,12.887,0,0,1,912.8,173c.054-.506.1-1.046.148-1.617l1-12.925a13.062,13.062,0,0,1,12.961-11.995H945.96a13.015,13.015,0,0,1,13,13v28.855a13.055,13.055,0,0,1-9.429,12.5,26.423,26.423,0,0,1-6.969.946,25.4,25.4,0,0,1-7.529-1.065,13.04,13.04,0,0,1-2.293-.982A20.529,20.529,0,0,1,922.786,202.1Z" fill="#e1efff"/><path d="M750.937,214.245a22.313,22.313,0,0,1-8.284-1.376,12.939,12.939,0,0,1-8.17-12.07V159.912a12.939,12.939,0,0,1,8.17-12.07,22.313,22.313,0,0,1,8.284-1.376,28.267,28.267,0,0,1,4.218.3,26.57,26.57,0,0,1,6.867-.862c5.467,0,23.305,2.034,23.305,28.207,0,20.206-10.615,26.011-17.859,27.616a13.046,13.046,0,0,1-8.522,11.284A23.717,23.717,0,0,1,750.937,214.245Z" fill="#e1efff"/><path d="M728.153,201.767A22.015,22.015,0,0,1,719.6,200.3a12.972,12.972,0,0,1-7.952-11.98V159.466a13.015,13.015,0,0,1,13-13h17.77a13.028,13.028,0,0,1,11.835,7.62,20.6,20.6,0,0,1-.1,16.709,13.077,13.077,0,0,1-9.488,7.211v10.315a13.04,13.04,0,0,1-8.555,12.216A23.557,23.557,0,0,1,728.153,201.767Z" fill="#e1efff"/><path d="M785.474,202.324c-12.738,0-21.635-9.308-21.635-22.636a22.352,22.352,0,0,1,3.2-11.845,18.767,18.767,0,0,1-.816-8.686,13.072,13.072,0,0,1,6.665-9.455,35.731,35.731,0,0,1,16.21-3.793c15.116,0,24.14,8.734,24.14,23.362v19.05a13.028,13.028,0,0,1-6.546,11.285,18.3,18.3,0,0,1-9.183,2.161,22.4,22.4,0,0,1-4.627-.475A25.944,25.944,0,0,1,785.474,202.324Z" fill="#e1efff"/><path d="M807.366,201.767a13.014,13.014,0,0,1-13-13v-29.3a13.014,13.014,0,0,1,13-13h13.592c12.016,0,21.077,8.989,21.077,20.91a22.8,22.8,0,0,1-.5,4.783,20.86,20.86,0,0,1,1.613,8.2c0,12.407-9.286,21.412-22.08,21.412Z" fill="#e1efff"/><path d="M905.573,202.324c-16.093,0-26.09-10.873-26.09-28.375,0-20.7,13.845-28.04,25.7-28.04,14.607,0,24.42,9.859,24.42,24.531a37.042,37.042,0,0,1-1.057,9.219,13,13,0,0,1-1.086,2.754,22.9,22.9,0,0,1,.561,3.864,13.084,13.084,0,0,1-5.559,11.44C920.9,198.8,915.085,202.324,905.573,202.324Z" fill="#e1efff"/><path d="M877.5,201.767a22.06,22.06,0,0,1-8.555-1.465,12.975,12.975,0,0,1-7.954-11.981V177.3a13,13,0,0,1-6.482-5.955,20.177,20.177,0,0,1,0-17.914,12.965,12.965,0,0,1,11.516-6.968h22.95a13.06,13.06,0,0,1,11.737,7.411,20.826,20.826,0,0,1,0,17.029,12.923,12.923,0,0,1-6.7,6.4v11.012a13.04,13.04,0,0,1-8.555,12.217A23.568,23.568,0,0,1,877.5,201.767Z" fill="#e1efff"/><path d="M857.5,201.767a26,26,0,0,1-7.446-1.022,12.915,12.915,0,0,1-1.551-.587,12.719,12.719,0,0,1-1.263.495,24.84,24.84,0,0,1-7.677,1.114,24.492,24.492,0,0,1-7.57-1.116,12.979,12.979,0,0,1-8.884-12.33V159.912A12.987,12.987,0,0,1,832,147.579a24.463,24.463,0,0,1,7.51-1.113,24.778,24.778,0,0,1,7.736,1.114,13.4,13.4,0,0,1,1.261.495,13.093,13.093,0,0,1,1.264-.5,24.781,24.781,0,0,1,7.621-1.113,25.72,25.72,0,0,1,7.335,1.022,12.934,12.934,0,0,1,9.174,12.424v28.409a12.984,12.984,0,0,1-8.887,12.333A24.453,24.453,0,0,1,857.5,201.767Z" fill="#e1efff"/><path d="M828.129,110.36a14.628,14.628,0,0,1-14.217-11.478c-.027-.125-.055-.261-.08-.4l-1.323-6.945A14.609,14.609,0,0,1,823.037,74.76L829.618,73a14.551,14.551,0,0,1,17.435,9.064l2.453,6.718a14.552,14.552,0,0,1-8.678,18.659c-.178.065-.37.13-.564.192-1.348.429-2.75.839-4.185,1.224-1.6.429-3.238.825-4.868,1.177a14.552,14.552,0,0,1-3.081.33Z" fill="#fff"/><path d="M832.993,135.621a18.4,18.4,0,0,1-15.964-9.241c-1.8.122-3.526.183-5.177.183-.3,0-.59,0-.881-.006-12.749-.172-20.281-4.242-22.387-12.1C786.278,105.85,791.83,97.977,805.1,91c-.355-2.692-.723-5.968-1.152-10.194-.524-5.33-1.907-19.415,9.52-22.476a12.35,12.35,0,0,1,3.183-.42c5.5,0,9.441,3.474,12.188,7.145l.828-.222a19.132,19.132,0,0,1,22.211,10.215q.7,1.47,1.313,2.77c1.447-.082,2.842-.124,4.176-.124,16.495,0,21.723,6.589,23.2,12.116,2.1,7.854-2.383,15.145-13.34,21.67q-2.391,1.423-5.157,2.788a18.3,18.3,0,0,1-13.648,17.863l-10.667,2.859A18.434,18.434,0,0,1,832.993,135.621Zm-7.276-48.137c.41,3.219.786,5.456,1.207,7.293a10.393,10.393,0,0,1-2.747,9.7c3.367-.575,6.894-1.347,10.414-2.29,1.881-.5,3.734-1.049,5.539-1.628a10.432,10.432,0,0,1-1.981-4.019c-.169-.679-.358-1.321-.808-2.745a84.661,84.661,0,0,0-3.679-8.395l-7.019,1.881Q826.186,87.4,825.717,87.484Z" fill="#fff"/><path d="M922.786,195.943a18.611,18.611,0,0,1-5.8-.945,9,9,0,0,1-5.184-4.666,14.87,14.87,0,0,1-1.3-6.174,16.154,16.154,0,0,1,1.09-5.794,8.994,8.994,0,0,1,4.9-4.967c.155-.932.315-2.19.445-3.86l1-12.925a9,9,0,0,1,8.973-8.3H945.96a9,9,0,0,1,9,9v28.855a9,9,0,0,1-6.528,8.654,22.573,22.573,0,0,1-5.87.792,21.549,21.549,0,0,1-6.31-.875,8.972,8.972,0,0,1-3.415-2.008A15.785,15.785,0,0,1,922.786,195.943Z" fill="#fff"/><path d="M750.937,208.087a18.487,18.487,0,0,1-6.8-1.09,9,9,0,0,1-5.657-8.356V157.754a9,9,0,0,1,5.657-8.356,18.487,18.487,0,0,1,6.8-1.09,23.4,23.4,0,0,1,4.45.4,21.89,21.89,0,0,1,6.635-.96c5.805,0,19.305,2.359,19.305,24.207,0,20.154-11.487,23.725-17.825,24.157v2.526a9,9,0,0,1-5.923,8.458A19.888,19.888,0,0,1,750.937,208.087Z" fill="#fff"/><path d="M728.154,195.609a18.227,18.227,0,0,1-7-1.151,9,9,0,0,1-5.507-8.295V157.308a9,9,0,0,1,9-9h17.77a9,9,0,0,1,8.194,5.275,16.466,16.466,0,0,1,1.363,6.622,16.025,16.025,0,0,1-1.431,6.711,9,9,0,0,1-8.126,5.13h-1.751v14.117a9,9,0,0,1-5.923,8.458A19.741,19.741,0,0,1,728.154,195.609Z" fill="#fff"/><path d="M785.474,196.166c-10.547,0-17.634-7.49-17.634-18.637a18.024,18.024,0,0,1,3.73-11.344c-.1-.193-.189-.393-.281-.6a14.889,14.889,0,0,1-1.116-7.978,9,9,0,0,1,4.615-6.546,31.49,31.49,0,0,1,14.307-3.312c12.8,0,20.141,7.057,20.141,19.361v19.051a9,9,0,0,1-4.534,7.814,14.344,14.344,0,0,1-7.2,1.632,18.164,18.164,0,0,1-4.789-.628A21.478,21.478,0,0,1,785.474,196.166Z" fill="#fff"/><path d="M807.366,195.609a9,9,0,0,1-9-9v-29.3a9,9,0,0,1,9-9h13.592c9.9,0,17.077,7.112,17.077,16.91a18.4,18.4,0,0,1-.726,5.192,16.674,16.674,0,0,1,1.84,7.788c0,10.251-7.434,17.411-18.08,17.411Z" fill="#fff"/><path d="M905.573,196.166c-13.832,0-22.09-9.112-22.09-24.374,0-17.726,11.21-24.041,21.7-24.041,12.405,0,20.42,8.059,20.42,20.531a33.33,33.33,0,0,1-.92,8.181,8.983,8.983,0,0,1-1.557,3.154,18.479,18.479,0,0,1,.9,4.737,9,9,0,0,1-3.849,7.919C919.243,192.923,914.142,196.166,905.573,196.166Z" fill="#fff"/><path d="M877.5,195.609a18.217,18.217,0,0,1-7-1.152,9,9,0,0,1-5.506-8.294V172.1a9,9,0,0,1-6.938-4.765,16.181,16.181,0,0,1,0-14.2,9,9,0,0,1,7.972-4.824h22.95a9,9,0,0,1,8.126,5.13,16.835,16.835,0,0,1,0,13.589,9,9,0,0,1-7.091,5.071v14.065a9,9,0,0,1-5.924,8.458A19.719,19.719,0,0,1,877.5,195.609Z" fill="#fff"/><path d="M857.5,195.609a22.217,22.217,0,0,1-6.268-.844,9,9,0,0,1-2.728-1.383,9.014,9.014,0,0,1-2.528,1.319,21.073,21.073,0,0,1-6.413.908,20.738,20.738,0,0,1-6.3-.908,9,9,0,0,1-6.152-8.538V157.754a9,9,0,0,1,6.152-8.538,20.58,20.58,0,0,1,6.246-.908,20.972,20.972,0,0,1,6.468.908,9.007,9.007,0,0,1,2.529,1.319,8.993,8.993,0,0,1,2.527-1.319,20.908,20.908,0,0,1,6.357-.908,21.872,21.872,0,0,1,6.157.844,9,9,0,0,1,6.352,8.6v28.409a9,9,0,0,1-6.153,8.538A20.565,20.565,0,0,1,857.5,195.609Z" fill="#fff"/><g clip-path="url(#a)"><g clip-path="url(#b)"><rect width="87.232" height="72.334" transform="matrix(0.966, -0.259, 0.259, 0.966, 781.119, 70.68)" fill="#3e69a6"/></g></g><g clip-path="url(#c)"><g clip-path="url(#b)"><rect width="231.315" height="52.336" transform="translate(719.644 151.288)" fill="#20385d"/></g></g></g></svg>