<svg xmlns="http://www.w3.org/2000/svg" width="68.448" height="68.457" viewBox="0 0 68.448 68.457"><g transform="translate(-4995.813 -1555.536)"><path d="M5059.128,1555.536h-58.181a5.133,5.133,0,0,0-5.134,5.134v37.646a5.134,5.134,0,0,0,5.134,5.134h14.34l-9.036,18.07a1.747,1.747,0,0,0,.788,2.293,1.844,1.844,0,0,0,.753.171,1.711,1.711,0,0,0,1.711-.958l4.483-9.309h32.1l4.655,9.309a1.712,1.712,0,0,0,1.54.958,1.852,1.852,0,0,0,.753-.171,1.745,1.745,0,0,0,.787-2.293l-9.035-18.07h14.34a5.134,5.134,0,0,0,5.133-5.134h0V1560.67A5.133,5.133,0,0,0,5059.128,1555.536Zm-43.431,54.758,3.423-6.844h21.835l3.422,6.844Zm45.142-11.978a1.711,1.711,0,0,1-1.711,1.711h-58.181a1.712,1.712,0,0,1-1.712-1.711V1560.67a1.712,1.712,0,0,1,1.712-1.712h58.181a1.711,1.711,0,0,1,1.711,1.712Z" fill="#fff"/><path d="M5051.085,1566.316l-15.914,15.88-9.07-9.035a1.643,1.643,0,0,0-2.322-.073c-.025.023-.05.048-.073.073l-17.112,17.112a1.642,1.642,0,0,0-.074,2.322c.024.026.048.05.074.074a1.642,1.642,0,0,0,2.322.074c.025-.024.05-.049.073-.074l15.915-15.88,9.069,9.035a1.642,1.642,0,0,0,2.322.074c.025-.024.05-.048.074-.074l17.112-17.112a1.694,1.694,0,0,0-2.4-2.4Z" fill="#fff"/></g></svg>