<svg xmlns="http://www.w3.org/2000/svg" width="58.646" height="74.496" viewBox="0 0 58.646 74.496"><g transform="translate(-4479.207 -2414.223)"><path d="M4500.288,2415.808a4.5,4.5,0,0,0-2.7,1.109l-15.692,15.692a4.5,4.5,0,0,0-1.109,2.7v50.245a1.7,1.7,0,0,0,1.585,1.585h52.306a1.7,1.7,0,0,0,1.585-1.585v-68.156a1.7,1.7,0,0,0-1.585-1.585Z" fill="none" stroke="#fff" stroke-linecap="round" stroke-miterlimit="10" stroke-width="3.17"/><line x2="55.476" transform="translate(4480.792 2445.606)" fill="none" stroke="#fff" stroke-linecap="round" stroke-miterlimit="10" stroke-width="3.17"/><path d="M4510.591,2438.157a1.5,1.5,0,0,1-1.585,1.585h-1.585a1.5,1.5,0,0,1-1.585-1.585v-15.851a1.5,1.5,0,0,1,1.585-1.585h1.585a1.5,1.5,0,0,1,1.585,1.585Z" fill="none" stroke="#fff" stroke-linecap="round" stroke-miterlimit="10" stroke-width="1.585"/><path d="M4520.1,2438.157a1.5,1.5,0,0,1-1.585,1.585h-1.585a1.5,1.5,0,0,1-1.585-1.585v-15.851a1.5,1.5,0,0,1,1.585-1.585h1.585a1.5,1.5,0,0,1,1.585,1.585Z" fill="none" stroke="#fff" stroke-linecap="round" stroke-miterlimit="10" stroke-width="1.585"/><path d="M4529.611,2438.157a1.5,1.5,0,0,1-1.585,1.585h-1.585a1.5,1.5,0,0,1-1.585-1.585v-15.851a1.5,1.5,0,0,1,1.585-1.585h1.585a1.5,1.5,0,0,1,1.585,1.585Z" fill="none" stroke="#fff" stroke-linecap="round" stroke-miterlimit="10" stroke-width="1.585"/><path d="M4529.928,2479.368a1.7,1.7,0,0,1-1.585,1.585h-39.626a1.705,1.705,0,0,1-1.585-1.585v-25.361a1.588,1.588,0,0,1,1.585-1.585h39.626a1.588,1.588,0,0,1,1.585,1.585Z" fill="none" stroke="#fff" stroke-linecap="round" stroke-miterlimit="10" stroke-width="3.17"/></g></svg>