<svg xmlns="http://www.w3.org/2000/svg" width="93.651" height="93.738" viewBox="0 0 93.651 93.738"><g transform="translate(-4969.755 -2467.438)"><path d="M5025.188,2529.356h-17.217c2.083,5.334,5.2,8.79,8.609,8.79S5023.1,2534.69,5025.188,2529.356Z" fill="#fff"/><path d="M5005.41,2529.356h-9.9a26.077,26.077,0,0,0,18.154,10.571C5010.24,2538.526,5007.327,2534.691,5005.41,2529.356Z" fill="#fff"/><path d="M5019.492,2539.927a26.08,26.08,0,0,0,18.154-10.571h-9.9C5025.832,2534.691,5022.919,2538.526,5019.492,2539.927Z" fill="#fff"/><path d="M5003.007,2516.154h-11.988a1.174,1.174,0,0,1-.424-.082,25.887,25.887,0,0,0,3.382,10.923c.013,0,.024,0,.037,0h10.64A46.815,46.815,0,0,1,5003.007,2516.154Z" fill="#fff"/><path d="M5013.668,2488.124a26.07,26.07,0,0,0-17.928,10.263h9.782C5007.441,2493.212,5010.307,2489.5,5013.668,2488.124Z" fill="#fff"/><path d="M5028.506,2526.991h10.679a25.88,25.88,0,0,0,3.372-10.837h-12.405A46.738,46.738,0,0,1,5028.506,2526.991Z" fill="#fff"/><path d="M5002.967,2513.789a47.63,47.63,0,0,1,1.774-13.037h-10.585a25.908,25.908,0,0,0-3.64,13.153,1.177,1.177,0,0,1,.5-.116Z" fill="#fff"/><path d="M5025.91,2500.752h-18.661a44.744,44.744,0,0,0-1.918,13.037h22.5A44.711,44.711,0,0,0,5025.91,2500.752Z" fill="#fff"/><path d="M5008.093,2498.387h16.973c-2.081-5.159-5.141-8.483-8.486-8.483S5010.175,2493.228,5008.093,2498.387Z" fill="#fff"/><path d="M5028.418,2500.752a47.667,47.667,0,0,1,1.775,13.037h12.448a25.893,25.893,0,0,0-3.638-13.037Z" fill="#fff"/><path d="M5027.637,2498.387h9.782a26.068,26.068,0,0,0-17.928-10.263C5022.853,2489.5,5025.719,2493.212,5027.637,2498.387Z" fill="#fff"/><path d="M5026.006,2526.991a44.072,44.072,0,0,0,1.777-10.837h-22.407a44.073,44.073,0,0,0,1.777,10.837Z" fill="#fff"/><g opacity="0.27"><path d="M5013.029,2467.554a46.939,46.939,0,0,0-43.274,44.747h2.921a44.02,44.02,0,0,1,40.353-41.82Z" fill="#fff"/><path d="M5017.9,2467.438v2.92A44.022,44.022,0,0,1,5060.42,2511h2.928A46.946,46.946,0,0,0,5017.9,2467.438Z" fill="#fff"/><path d="M5015.624,2558.257a44.024,44.024,0,0,1-42.942-41.415h-2.927a46.946,46.946,0,0,0,45.869,44.334Z" fill="#fff"/><path d="M5060.478,2516.842a44.043,44.043,0,0,1-39.338,41.2v2.938a46.97,46.97,0,0,0,42.266-44.136Z" fill="#fff"/><path d="M5016.58,2547.662a33.271,33.271,0,0,0,20.935-7.309,33.87,33.87,0,0,0,5.383-5.381,33.27,33.27,0,0,0,7.32-20.947,33.768,33.768,0,0,0-29.133-33.335,33.187,33.187,0,0,0-6.682-.229l-.115.006a33.637,33.637,0,0,0,2.292,67.2Zm0-63.143a29.54,29.54,0,0,1,29.507,29.506c0,.228,0,.454-.009.68l0,.075.011.191a2.283,2.283,0,0,1-.022.31l-.013.134a29.506,29.506,0,1,1-29.472-30.9Z" fill="#fff"/></g></g></svg>